<svg width="653" height="91" viewBox="0 0 653 91" fill="none" xmlns="http://www.w3.org/2000/svg">
<path d="M0.888 89V5.48H20.376L58.888 43.528V75.544L18.404 35.408L25.48 32.508V89H0.888ZM51.464 89V5.48H76.056V89H51.464ZM88.6048 56.984C88.6048 49.2507 90.0742 42.948 93.0128 38.076C95.9515 33.1267 100.012 29.492 105.193 27.172C110.374 24.7747 116.29 23.576 122.941 23.576C129.592 23.576 135.508 24.7747 140.689 27.172C145.87 29.492 149.93 33.1267 152.869 38.076C155.808 42.948 157.277 49.2507 157.277 56.984C157.277 64.7173 155.808 71.0587 152.869 76.008C149.93 80.88 145.87 84.5147 140.689 86.912C135.508 89.232 129.592 90.392 122.941 90.392C116.29 90.392 110.374 89.232 105.193 86.912C100.012 84.5147 95.9515 80.88 93.0128 76.008C90.0742 71.0587 88.6048 64.7173 88.6048 56.984ZM113.661 56.984C113.661 62.32 114.396 66.38 115.865 69.164C117.334 71.8707 119.693 73.224 122.941 73.224C126.189 73.224 128.548 71.8707 130.017 69.164C131.486 66.38 132.221 62.32 132.221 56.984C132.221 51.648 131.486 47.6267 130.017 44.92C128.548 42.136 126.189 40.744 122.941 40.744C119.693 40.744 117.334 42.136 115.865 44.92C114.396 47.6267 113.661 51.648 113.661 56.984ZM169.79 89V47.704C169.79 46.1573 169.752 44.1853 169.674 41.788C169.597 39.3907 169.442 37.032 169.21 34.712C169.056 32.392 168.785 30.536 168.398 29.144L168.862 28.216C171.182 27.4427 173.734 26.708 176.518 26.012C179.302 25.316 182.512 24.736 186.146 24.272C189.781 23.808 194.073 23.576 199.022 23.576C199.873 23.576 201.458 23.6533 203.778 23.808C206.098 23.8853 208.689 24.1173 211.55 24.504V43.528H210.158C208.766 43.064 207.258 42.716 205.634 42.484C204.088 42.252 202.502 42.136 200.878 42.136C198.249 42.136 195.89 42.368 193.802 42.832C191.792 43.2187 190.09 43.8373 188.698 44.688L191.83 39.584C193.532 41.0533 194.382 45.3067 194.382 52.344V89H169.79ZM256.133 90.392C248.555 90.392 241.904 89.348 236.181 87.26C230.459 85.172 226.012 81.692 222.841 76.82C219.671 71.948 218.085 65.336 218.085 56.984C218.085 50.1787 219.439 44.3013 222.145 39.352C224.929 34.4027 228.835 30.5747 233.861 27.868C238.965 25.1613 244.997 23.7693 251.957 23.692C254.973 23.6147 257.525 23.8467 259.613 24.388C261.701 24.9293 263.016 25.2773 263.557 25.432V42.6C262.397 42.2133 261.276 41.904 260.193 41.672C259.188 41.3627 257.989 41.208 256.597 41.208C251.803 41.208 248.361 42.6387 246.273 45.5C244.185 48.3613 243.141 52.1893 243.141 56.984C243.141 59.768 243.528 62.3587 244.301 64.756C245.152 67.1533 246.544 69.0867 248.477 70.556C250.488 72.0253 253.195 72.76 256.597 72.76C258.453 72.76 259.884 72.6827 260.889 72.528C261.972 72.296 262.861 72.064 263.557 71.832L262.397 77.632C261.392 76.24 260.773 74.616 260.541 72.76C260.387 70.8267 260.309 68.6613 260.309 66.264V22.996C260.309 20.7533 260.232 18.2013 260.077 15.34C260 12.4787 259.845 9.772 259.613 7.22C259.459 4.668 259.227 2.85067 258.917 1.768L259.381 0.84H284.901V66.728C284.901 68.2747 284.901 70.208 284.901 72.528C284.979 74.848 285.056 77.1293 285.133 79.372C285.288 81.6147 285.52 83.432 285.829 84.824L285.365 85.752C282.117 87.144 278.057 88.2653 273.185 89.116C268.313 89.9667 262.629 90.392 256.133 90.392ZM296.918 47.704C296.918 39.1973 298.813 31.6573 302.602 25.084C306.391 18.5107 311.959 13.368 319.306 9.656C326.73 5.944 335.894 4.088 346.798 4.088C351.129 4.088 354.995 4.39733 358.398 5.016C361.878 5.55734 364.43 6.176 366.054 6.872V27.52H364.662C363.038 26.6693 360.679 25.9733 357.586 25.432C354.57 24.8133 351.361 24.504 347.958 24.504C338.91 24.504 332.298 26.592 328.122 30.768C324.023 34.944 321.974 40.744 321.974 48.168C321.974 52.4987 322.825 56.3653 324.526 59.768C326.227 63.0933 328.625 65.7227 331.718 67.656C334.889 69.512 338.601 70.44 342.854 70.44C345.097 70.44 346.914 70.208 348.306 69.744C349.698 69.2027 350.897 68.1973 351.902 66.728L347.494 79.952V46.08H369.766V85.752C366.518 87.144 362.574 88.2653 357.934 89.116C353.294 89.9667 348.113 90.392 342.39 90.392C332.337 90.392 323.946 88.6133 317.218 85.056C310.49 81.4987 305.425 76.5107 302.022 70.092C298.619 63.6733 296.918 56.2107 296.918 47.704ZM417.748 90.392C413.649 90.392 409.589 89.9667 405.568 89.116C401.624 88.2653 398.028 86.7573 394.78 84.592C391.532 82.4267 388.941 79.4107 387.008 75.544C385.074 71.6773 384.108 66.728 384.108 60.696V44.456C384.108 42.9093 384.069 40.976 383.992 38.656C383.914 36.336 383.76 34.0547 383.528 31.812C383.373 29.5693 383.102 27.752 382.716 26.36L383.18 25.432H408.7V60.232C408.7 63.1707 409.164 65.452 410.092 67.076C411.02 68.7 412.296 69.8213 413.92 70.44C415.544 71.0587 417.361 71.368 419.372 71.368C421.46 71.368 423.316 71.0973 424.94 70.556C426.641 70.0147 428.188 69.512 429.58 69.048L426.332 74.268C425.79 73.0307 425.326 71.4453 424.94 69.512C424.63 67.5013 424.476 64.872 424.476 61.624V44.456C424.476 42.9093 424.437 40.976 424.36 38.656C424.282 36.336 424.128 34.0547 423.896 31.812C423.741 29.5693 423.47 27.752 423.084 26.36L423.548 25.432H449.068V63.944C449.068 65.4907 449.106 67.4627 449.184 69.86C449.261 72.2573 449.416 74.616 449.648 76.936C449.88 79.256 450.15 81.112 450.46 82.504L449.996 83.432C447.212 84.6693 444.118 85.8293 440.716 86.912C437.39 87.9173 433.794 88.7293 429.928 89.348C426.061 90.044 422.001 90.392 417.748 90.392ZM493.656 90.392C482.984 90.392 474.903 88.9227 469.412 85.984C463.921 82.968 461.176 77.632 461.176 69.976C461.176 65.1813 462.375 61.3147 464.772 58.376C467.247 55.4373 470.572 53.3107 474.748 51.996C479.001 50.6813 483.757 50.024 489.016 50.024C490.872 50.024 492.728 50.1013 494.584 50.256C496.44 50.3333 498.296 50.5653 500.152 50.952V64.408C499.456 64.176 498.373 63.9827 496.904 63.828C495.512 63.596 494.12 63.48 492.728 63.48C489.48 63.48 487.121 63.9827 485.652 64.988C484.183 65.916 483.448 67.424 483.448 69.512C483.448 71.6 484.221 73.0693 485.768 73.92C487.315 74.6933 489.48 75.08 492.264 75.08C494.429 75.08 496.479 74.848 498.412 74.384C500.423 73.92 502.008 72.9533 503.168 71.484L500.616 78.212C499.997 76.7427 499.495 75.4667 499.108 74.384C498.721 73.224 498.412 72.0253 498.18 70.788C498.025 69.5507 497.909 68.004 497.832 66.148C497.832 64.292 497.832 61.856 497.832 58.84V50.488C497.832 48.0133 497.329 46.1187 496.324 44.804C495.319 43.412 493.811 42.484 491.8 42.02C489.789 41.4787 487.315 41.208 484.376 41.208C480.896 41.208 477.687 41.4787 474.748 42.02C471.887 42.484 469.528 43.1413 467.672 43.992H466.28V25.896C469.064 25.2 472.196 24.6587 475.676 24.272C479.156 23.808 482.984 23.576 487.16 23.576C492.264 23.576 496.904 24.04 501.08 24.968C505.333 25.8187 508.968 27.3267 511.984 29.492C515.077 31.58 517.436 34.48 519.06 38.192C520.684 41.904 521.496 46.6213 521.496 52.344V65.8C521.496 67.5013 521.535 69.5507 521.612 71.948C521.689 74.268 521.805 76.588 521.96 78.908C522.192 81.1507 522.501 82.968 522.888 84.36L522.424 85.288C519.64 86.2933 516.74 87.1827 513.724 87.956C510.708 88.7293 507.537 89.3093 504.212 89.696C500.887 90.16 497.368 90.392 493.656 90.392ZM536.368 89V47.704C536.368 46.1573 536.33 44.1853 536.252 41.788C536.175 39.3907 536.02 37.032 535.788 34.712C535.634 32.392 535.363 30.536 534.976 29.144L535.44 28.216C537.76 27.4427 540.312 26.708 543.096 26.012C545.88 25.316 549.09 24.736 552.724 24.272C556.359 23.808 560.651 23.576 565.6 23.576C566.451 23.576 568.036 23.6533 570.356 23.808C572.676 23.8853 575.267 24.1173 578.128 24.504V43.528H576.736C575.344 43.064 573.836 42.716 572.212 42.484C570.666 42.252 569.08 42.136 567.456 42.136C564.827 42.136 562.468 42.368 560.38 42.832C558.37 43.2187 556.668 43.8373 555.276 44.688L558.408 39.584C560.11 41.0533 560.96 45.3067 560.96 52.344V89H536.368ZM622.711 90.392C615.133 90.392 608.482 89.348 602.759 87.26C597.037 85.172 592.59 81.692 589.419 76.82C586.249 71.948 584.663 65.336 584.663 56.984C584.663 50.1787 586.017 44.3013 588.723 39.352C591.507 34.4027 595.413 30.5747 600.439 27.868C605.543 25.1613 611.575 23.7693 618.535 23.692C621.551 23.6147 624.103 23.8467 626.191 24.388C628.279 24.9293 629.594 25.2773 630.135 25.432V42.6C628.975 42.2133 627.854 41.904 626.771 41.672C625.766 41.3627 624.567 41.208 623.175 41.208C618.381 41.208 614.939 42.6387 612.851 45.5C610.763 48.3613 609.719 52.1893 609.719 56.984C609.719 59.768 610.106 62.3587 610.879 64.756C611.73 67.1533 613.122 69.0867 615.055 70.556C617.066 72.0253 619.773 72.76 623.175 72.76C625.031 72.76 626.462 72.6827 627.467 72.528C628.55 72.296 629.439 72.064 630.135 71.832L628.975 77.632C627.97 76.24 627.351 74.616 627.119 72.76C626.965 70.8267 626.887 68.6613 626.887 66.264V22.996C626.887 20.7533 626.81 18.2013 626.655 15.34C626.578 12.4787 626.423 9.772 626.191 7.22C626.037 4.668 625.805 2.85067 625.495 1.768L625.959 0.84H651.479V66.728C651.479 68.2747 651.479 70.208 651.479 72.528C651.557 74.848 651.634 77.1293 651.711 79.372C651.866 81.6147 652.098 83.432 652.407 84.824L651.943 85.752C648.695 87.144 644.635 88.2653 639.763 89.116C634.891 89.9667 629.207 90.392 622.711 90.392Z" fill="url(#paint0_linear_22_24)"/>
<defs>
<linearGradient id="paint0_linear_22_24" x1="-7" y1="4.99999" x2="708" y2="115.5" gradientUnits="userSpaceOnUse">
<stop stop-color="#3C26D9"/>
<stop offset="1" stop-color="#6A55FF" stop-opacity="0.7"/>
</linearGradient>
</defs>
</svg>
